<?xml version="1.0" encoding="UTF-8" standalone="no"?><svg xmlns="http://www.w3.org/2000/svg" xmlns:xlink= "http://www.w3.org/1999/xlink" width="630" height="405" aria-label="A chart." style="overflow: hidden;"><defs id="_ABSTRACT_RENDERER_ID_102"><clipPath id="_ABSTRACT_RENDERER_ID_103"><rect x="121" y="78" width="389" height="250"></rect></clipPath></defs><rect x="0" y="0" width="630" height="405" stroke="none" stroke-width="0" fill="#ffffff"></rect><g><text text-anchor="start" x="121" y="55.05" font-family="Arial" font-size="13" font-weight="bold" stroke="none" stroke-width="0" fill="#000000">Dulana Beach Resort</text><rect x="121" y="44" width="389" height="13" stroke="none" stroke-width="0" fill-opacity="0" fill="#ffffff"></rect></g><g><rect x="523" y="78" width="94" height="93" stroke="none" stroke-width="0" fill-opacity="0" fill="#ffffff"></rect><g><rect x="523" y="78" width="94" height="13" stroke="none" stroke-width="0" fill-opacity="0" fill="#ffffff"></rect><g><text text-anchor="start" x="554" y="89.05" font-family="Arial" font-size="13" stroke="none" stroke-width="0" fill="#222222">Reservers</text></g><rect x="523" y="78" width="26" height="13" stroke="none" stroke-width="0" fill="#3366cc"></rect></g><g><rect x="523" y="99" width="94" height="13" stroke="none" stroke-width="0" fill-opacity="0" fill="#ffffff"></rect><g><text text-anchor="start" x="554" y="110.05" font-family="Arial" font-size="13" stroke="none" stroke-width="0" fill="#222222">Employ…</text><rect x="554" y="99" width="63" height="13" stroke="none" stroke-width="0" fill-opacity="0" fill="#ffffff"></rect></g><rect x="523" y="99" width="26" height="13" stroke="none" stroke-width="0" fill="#dc3912"></rect></g><g><rect x="523" y="120" width="94" height="13" stroke="none" stroke-width="0" fill-opacity="0" fill="#ffffff"></rect><g><text text-anchor="start" x="554" y="131.05" font-family="Arial" font-size="13" stroke="none" stroke-width="0" fill="#222222">Suppliers</text></g><rect x="523" y="120" width="26" height="13" stroke="none" stroke-width="0" fill="#ff9900"></rect></g><g><rect x="523" y="141" width="94" height="30" stroke="none" stroke-width="0" fill-opacity="0" fill="#ffffff"></rect><g><text text-anchor="start" x="554" y="152.05" font-family="Arial" font-size="13" stroke="none" stroke-width="0" fill="#222222">Room</text><text text-anchor="start" x="554" y="169.05" font-family="Arial" font-size="13" stroke="none" stroke-width="0" fill="#222222">Count</text></g><rect x="523" y="141" width="26" height="13" stroke="none" stroke-width="0" fill="#109618"></rect></g></g><g><rect x="121" y="78" width="389" height="250" stroke="none" stroke-width="0" fill-opacity="0" fill="#ffffff"></rect><g clip-path="url(https://bargraphmaker.org/#_ABSTRACT_RENDERER_ID_103)"><g><rect x="121" y="327" width="389" height="1" stroke="none" stroke-width="0" fill="#cccccc"></rect><rect x="121" y="277" width="389" height="1" stroke="none" stroke-width="0" fill="#cccccc"></rect><rect x="121" y="227" width="389" height="1" stroke="none" stroke-width="0" fill="#cccccc"></rect><rect x="121" y="178" width="389" height="1" stroke="none" stroke-width="0" fill="#cccccc"></rect><rect x="121" y="128" width="389" height="1" stroke="none" stroke-width="0" fill="#cccccc"></rect><rect x="121" y="78" width="389" height="1" stroke="none" stroke-width="0" fill="#cccccc"></rect><rect x="121" y="302" width="389" height="1" stroke="none" stroke-width="0" fill="#ebebeb"></rect><rect x="121" y="252" width="389" height="1" stroke="none" stroke-width="0" fill="#ebebeb"></rect><rect x="121" y="203" width="389" height="1" stroke="none" stroke-width="0" fill="#ebebeb"></rect><rect x="121" y="153" width="389" height="1" stroke="none" stroke-width="0" fill="#ebebeb"></rect><rect x="121" y="103" width="389" height="1" stroke="none" stroke-width="0" fill="#ebebeb"></rect></g><g><rect x="196" y="79" width="59" height="248" stroke="none" stroke-width="0" fill="#3366cc"></rect><rect x="256" y="204" width="59" height="123" stroke="none" stroke-width="0" fill="#dc3912"></rect><rect x="316" y="241" width="59" height="86" stroke="none" stroke-width="0" fill="#ff9900"></rect><rect x="376" y="216" width="59" height="111" stroke="none" stroke-width="0" fill="#109618"></rect></g><g><rect x="121" y="327" width="389" height="1" stroke="none" stroke-width="0" fill="#333333"></rect></g></g><g></g><g><g><text text-anchor="middle" x="315.5" y="347.05" font-family="Arial" font-size="13" stroke="none" stroke-width="0" fill="#222222">Reservers Employees Supplier RoomCount</text></g><g><text text-anchor="end" x="108" y="332.05" font-family="Arial" font-size="13" stroke="none" stroke-width="0" fill="#444444">0</text></g><g><text text-anchor="end" x="108" y="282.25" font-family="Arial" font-size="13" stroke="none" stroke-width="0" fill="#444444">20</text></g><g><text text-anchor="end" x="108" y="232.45000000000002" font-family="Arial" font-size="13" stroke="none" stroke-width="0" fill="#444444">40</text></g><g><text text-anchor="end" x="108" y="182.65" font-family="Arial" font-size="13" stroke="none" stroke-width="0" fill="#444444">60</text></g><g><text text-anchor="end" x="108" y="132.85000000000002" font-family="Arial" font-size="13" stroke="none" stroke-width="0" fill="#444444">80</text></g><g><text text-anchor="end" x="108" y="83.05" font-family="Arial" font-size="13" stroke="none" stroke-width="0" fill="#444444">100</text></g></g></g><g><g><text text-anchor="middle" x="315.5" y="381.55" font-family="Arial" font-size="13" font-style="italic" stroke="none" stroke-width="0" fill="#222222">Category</text><rect x="121" y="370.5" width="389" height="13" stroke="none" stroke-width="0" fill-opacity="0" fill="#ffffff"></rect></g><g><text text-anchor="middle" x="47.55" y="203" font-family="Arial" font-size="13" font-style="italic" transform="rotate(-90 47.55 203)" stroke="none" stroke-width="0" fill="#222222">Count</text><path d="M36.49999999999999,328L36.50000000000001,78L49.50000000000001,78L49.49999999999999,328Z" stroke="none" stroke-width="0" fill-opacity="0" fill="#ffffff"></path></g></g><g></g></svg>