<?xml version="1.0" encoding="UTF-8" standalone="no"?><svg xmlns="http://www.w3.org/2000/svg" xmlns:xlink= "http://www.w3.org/1999/xlink" width="630" height="405" aria-label="A chart." style="overflow: hidden;"><defs id="_ABSTRACT_RENDERER_ID_9"></defs><rect x="0" y="0" width="630" height="405" stroke="none" stroke-width="0" fill="#ffffff"></rect><g><text text-anchor="start" x="121" y="55.05" font-family="Arial" font-size="13" font-weight="bold" stroke="none" stroke-width="0" fill="#000000">Rooms</text><rect x="121" y="44" width="389" height="13" stroke="none" stroke-width="0" fill-opacity="0" fill="#ffffff"></rect></g><g><path d="M316,190.5L316,215.5L235.65154878918258,138.8955556881022L235.65154878918258,113.8955556881022" stroke="#bf7300" stroke-width="1" fill="#bf7300"></path><path d="M316,190.5L235.65154878918258,113.8955556881022A125,100,0,0,1,316,90.5L316,190.5A0,0,0,0,0,316,190.5" stroke="#ff9900" stroke-width="1" fill="#ff9900"></path><text text-anchor="start" x="277.29280876993033" y="119.91076988471211" font-family="Arial" font-size="13" stroke="none" stroke-width="0" fill="#ffffff">5</text></g><g><path d="M273.2474820842914,284.4692620785909L273.2474820842914,309.4692620785909A125,100,0,0,1,191,215.5L191,190.5A125,100,0,0,0,273.2474820842914,284.4692620785909" stroke="#a52b0e" stroke-width="1" fill="#a52b0e"></path><path d="M316,190.5L316,215.5L273.2474820842914,309.4692620785909L273.2474820842914,284.4692620785909" stroke="#a52b0e" stroke-width="1" fill="#a52b0e"></path><path d="M316,190.5L273.2474820842914,284.4692620785909A125,100,0,0,1,235.65154878918258,113.8955556881022L316,190.5A0,0,0,0,0,316,190.5" stroke="#dc3912" stroke-width="1" fill="#dc3912"></path><text text-anchor="start" x="207.13862815540583" y="209.00177686510375" font-family="Arial" font-size="13" stroke="none" stroke-width="0" fill="#ffffff">15</text></g><g><path d="M441,190.5L441,215.5A125,100,0,0,1,273.2474820842914,309.4692620785909L273.2474820842914,284.4692620785909A125,100,0,0,0,441,190.5" stroke="#264d99" stroke-width="1" fill="#264d99"></path><path d="M316,190.5L316,90.5A125,100,0,1,1,273.2474820842914,284.4692620785909L316,190.5A0,0,0,1,0,316,190.5" stroke="#3366cc" stroke-width="1" fill="#3366cc"></path><text text-anchor="start" x="410.8613718445942" y="209.00177686510372" font-family="Arial" font-size="13" stroke="none" stroke-width="0" fill="#ffffff">25</text></g><g><g><g><text text-anchor="end" x="510" y="198.03269468479607" font-family="Arial" font-size="13" stroke="none" stroke-width="0" fill="#222222">Single</text></g><g><text text-anchor="end" x="510" y="219.06730531520395" font-family="Arial" font-size="13" stroke="none" stroke-width="0" fill="#9e9e9e">55.6%</text></g></g><g><path d="M408.5,204.5L454,204.5L454,204.5L510.5,204.5" stroke="#636363" stroke-width="1" stroke-opacity="0.7" fill-opacity="1" fill="none"></path><circle cx="408.5" cy="204.5" r="2" stroke="none" stroke-width="0" fill-opacity="0.7" fill="#636363"></circle></g><g><g><text text-anchor="start" x="121" y="198.03269468479607" font-family="Arial" font-size="13" stroke="none" stroke-width="0" fill="#222222">Double</text></g><g><text text-anchor="start" x="121" y="219.06730531520395" font-family="Arial" font-size="13" stroke="none" stroke-width="0" fill="#9e9e9e">33.3%</text></g></g><g><path d="M224.5,204.5L178,204.5L178,204.5L121.5,204.5" stroke="#636363" stroke-width="1" stroke-opacity="0.7" fill-opacity="1" fill="none"></path><circle cx="224.5" cy="204.5" r="2" stroke="none" stroke-width="0" fill-opacity="0.7" fill="#636363"></circle></g><g><g><text text-anchor="start" x="121" y="114.03269468479604" font-family="Arial" font-size="13" stroke="none" stroke-width="0" fill="#222222">Family</text></g><g><text text-anchor="start" x="121" y="135.06730531520395" font-family="Arial" font-size="13" stroke="none" stroke-width="0" fill="#9e9e9e">11.1%</text></g></g><g><path d="M284.5,120.5L178,120.5L178,120.5L121.5,120.5" stroke="#636363" stroke-width="1" stroke-opacity="0.7" fill-opacity="1" fill="none"></path><circle cx="284.5" cy="120.5" r="2" stroke="none" stroke-width="0" fill-opacity="0.7" fill="#636363"></circle></g></g><g></g></svg>